<svg width="445" height="430" viewBox="0 0 445 430" fill="none" xmlns="http://www.w3.org/2000/svg">
<path d="M167 363C246.529 363 311 298.529 311 219C311 139.471 246.529 75 167 75C87.471 75 23 139.471 23 219C23 298.529 87.471 363 167 363Z" fill="#F2F2F2"/>
<path d="M190.108 240.957C158.401 289.834 167.089 352 167.089 352C167.089 352 227.184 334.92 258.892 286.043C290.599 237.166 281.911 175 281.911 175C281.911 175 221.816 192.08 190.108 240.957Z" fill="#113179"/>
<path d="M166.991 351C166.991 351 166.215 350.877 164.786 350.589C163.646 350.359 162.077 350.03 160.16 349.578C143.029 345.558 97.4849 331.969 67.7083 296.241C30.4401 251.503 32.0095 189 32.0095 189C32.0095 189 88.9938 198.216 126.543 238.391C128.17 240.117 129.753 241.907 131.292 243.759C163.72 282.685 166.743 335.06 166.983 348.008C167.016 349.948 166.991 351 166.991 351Z" fill="#5D9EFE"/>
<path fill-rule="evenodd" clip-rule="evenodd" d="M143.892 240.957C175.599 289.834 166.911 352 166.911 352C166.911 352 106.816 334.92 75.1083 286.043C43.4009 237.166 52.0888 175 52.0888 175C52.0888 175 112.184 192.08 143.892 240.957Z" stroke="#113179" stroke-width="2"/>
<path opacity="0.1" d="M167 349.056C166.16 350.071 165.419 350.938 164.81 351.648C163.459 353.191 162.693 354 162.693 354C162.693 354 161.763 352.828 160.199 350.632C151.61 338.631 123.984 295.959 126.117 246.668C126.232 244.084 126.422 241.528 126.685 239C128.307 240.733 129.886 242.53 131.42 244.39C163.747 283.471 166.761 336.056 167 349.056Z" fill="black"/>
<path d="M214.883 250.281C212.355 308.547 168.922 354 168.922 354C168.922 354 129.588 304.985 132.117 246.719C134.645 188.453 178.078 143 178.078 143C178.078 143 217.412 192.015 214.883 250.281Z" fill="#5D9EFE"/>
<path d="M169 352L178 145" stroke="#113179" stroke-width="2"/>
<path d="M222.5 371C345.383 371 445 364.732 445 357C445 349.268 345.383 343 222.5 343C99.6166 343 0 349.268 0 357C0 364.732 99.6166 371 222.5 371Z" fill="#113179"/>
<path d="M36.9999 352V296V352Z" fill="#113179"/>
<path d="M36.9999 352V296" stroke="#113179" stroke-width="2"/>
<path d="M37 304C41.4183 304 45 300.418 45 296C45 291.582 41.4183 288 37 288C32.5817 288 29 291.582 29 296C29 300.418 32.5817 304 37 304Z" fill="#113179"/>
<path d="M37 331C37 331 35.8837 306.368 13 309.232L37 331Z" fill="#113179"/>
<path d="M228 261V105V261Z" fill="#113179"/>
<path d="M228 261V105" stroke="#113179" stroke-width="2"/>
<path d="M228 117C234.075 117 239 112.075 239 106C239 99.9249 234.075 95 228 95C221.925 95 217 99.9249 217 106C217 112.075 221.925 117 228 117Z" fill="#113179"/>
<path d="M228 150C228 150 226.465 116.412 195 120.316L228 150Z" fill="#113179"/>
<path d="M358.286 175L348.909 192.635C348.909 192.635 281.108 205.591 289.763 225.745C298.419 245.899 308.156 275.41 313.205 274.691C318.254 273.971 346.024 258.136 347.106 253.457C348.188 248.778 322.221 226.825 322.221 226.825L365.138 218.547C365.138 218.547 371.269 247.339 363.335 267.133C355.401 286.927 350.712 340.551 356.122 341.271C361.531 341.991 375.236 346.31 381.367 342.351C387.498 338.392 390.383 251.657 390.383 251.657C390.383 251.657 403.366 194.794 395.432 188.316C387.498 181.838 358.286 175 358.286 175Z" fill="#002E95"/>
<path d="M372.942 333.257C372.942 333.257 364.564 328.833 362.8 332.372C362.8 332.372 364.123 342.99 358.831 344.317C353.539 345.644 351.334 354.935 358.831 355.819C366.327 356.704 371.178 354.05 373.824 354.05C376.47 354.05 373.824 344.759 373.824 344.759L372.942 333.257Z" fill="#002E95"/>
<path d="M332.965 260.835C332.965 260.835 323.836 258.275 322.855 262.12C322.855 262.12 326.383 272.254 321.485 274.679C316.586 277.104 316.384 286.685 323.905 285.961C331.426 285.238 335.614 281.604 338.203 281.043C340.791 280.481 336.248 271.93 336.248 271.93L332.965 260.835Z" fill="#002E95"/>
<path d="M378.395 112.859C378.395 112.859 378.752 126.289 376.258 127.378C373.765 128.467 390.15 135 390.15 135L393 129.918C393 129.918 389.794 111.77 390.507 110.318C391.219 108.866 378.395 112.859 378.395 112.859Z" fill="#77AEFE"/>
<path d="M384 116C396.15 116 406 106.15 406 94C406 81.8497 396.15 72 384 72C371.85 72 362 81.8497 362 94C362 106.15 371.85 116 384 116Z" fill="#002E95"/>
<path d="M386 82C390.971 82 395 77.9706 395 73C395 68.0294 390.971 64 386 64C381.029 64 377 68.0294 377 73C377 77.9706 381.029 82 386 82Z" fill="#002E95"/>
<path d="M373.887 68C373.887 63.3924 377.389 59.529 382 59.0487C381.687 59.0163 381.372 59.0001 381.057 59C376.055 59 372 63.0294 372 68C372 72.9706 376.055 77 381.057 77C381.372 76.9999 381.687 76.9837 382 76.9513C377.389 76.471 373.887 72.6076 373.887 68Z" fill="#002E95"/>
<path d="M383 120C391.284 120 398 113.284 398 105C398 96.7157 391.284 90 383 90C374.716 90 368 96.7157 368 105C368 113.284 374.716 120 383 120Z" fill="#77AEFE"/>
<path d="M394.251 124.809C394.251 124.809 381.297 128.75 374.82 124.809C368.343 120.869 352.87 132.332 350.351 137.347C347.832 142.362 359.706 147.377 359.706 147.377C359.706 147.377 356.316 157.061 357.008 161.884C357.727 166.899 356.468 177.108 356.468 177.108C356.468 177.108 388.258 197.958 395.33 188.571C396.41 187.138 405.406 153.466 405.406 153.466L418 140.929C418 140.929 410.084 129.466 405.406 128.391C400.728 127.317 394.251 124.809 394.251 124.809Z" fill="#D0CDE1"/>
<path d="M306.937 198C306.937 198 282.684 210.838 287.677 214.506C292.671 218.174 313 200.201 313 200.201L306.937 198Z" fill="#77AEFE"/>
<path d="M402.922 188.939C402.922 188.939 391.927 181.222 390.156 185.08C388.386 188.939 402.195 197.627 405.103 194.227C408.01 190.827 402.922 188.939 402.922 188.939Z" fill="#77AEFE"/>
<path d="M411.768 136L418.181 139.988C418.181 139.988 439.914 170.444 432.433 177.333C424.951 184.222 405.712 198 405.712 198C405.712 198 399.299 188.573 401.436 188.211C403.574 187.848 420.675 173.345 420.675 173.345L405.712 145.064L411.768 136Z" fill="#D0CDE1"/>
<path d="M354.179 135L349.513 136.811L337.308 158.899L305 198.368C305 198.368 309.308 205.248 312.897 203.8C316.487 202.351 343.41 171.935 343.41 171.935L361 144.415L354.179 135Z" fill="#D0CDE1"/>
<path d="M384.5 96C393.06 96 400 91.9706 400 87C400 82.0294 393.06 78 384.5 78C375.94 78 369 82.0294 369 87C369 91.9706 375.94 96 384.5 96Z" fill="#002E95"/>
<rect x="282" y="282" width="71" height="71" fill="#5D9EFE"/>
<path fill-rule="evenodd" clip-rule="evenodd" d="M330.867 331.409C338.301 331.409 343 325.087 343 315.055C343 301.409 332.546 292 317.46 292C301.766 292 291 302.587 291 318.006C291 333.805 301.549 343.986 318.029 343.999C320.885 344.013 323.733 343.705 326.52 343.078C327.65 342.805 328.356 341.68 328.11 340.544C327.863 339.408 326.755 338.676 325.612 338.895C323.181 339.324 320.715 339.532 318.246 339.518C304.691 339.518 295.983 331.206 295.983 318.182C295.983 305.443 304.785 296.44 317.135 296.44C329.621 296.44 338.071 303.981 338.071 315.258C338.071 322.325 335.688 326.874 331.936 326.874C329.77 326.874 328.565 325.56 328.565 323.381V305.876H323.161V309.64H322.62C321.374 306.892 318.544 305.213 315.213 305.213C308.726 305.213 304.284 310.479 304.284 318.047C304.284 325.926 308.699 331.219 315.307 331.219C319.018 331.219 321.78 329.5 323.121 326.359H323.662C324.164 329.378 327.061 331.409 330.867 331.409ZM316.309 326.21C312.477 326.21 310.121 323.178 310.121 318.169C310.121 313.146 312.436 310.195 316.377 310.195C320.345 310.195 322.891 313.241 322.891 318.169C322.891 323.097 320.345 326.21 316.309 326.21Z" fill="white"/>
</svg>
