<svg width="66" height="56" viewBox="0 0 66 56" fill="none" xmlns="http://www.w3.org/2000/svg">
<path d="M65.5 38C65.5 47.9411 57.4411 56 47.5 56L20.5 56C17.7386 56 15.5 53.7614 15.5 51L15.5 17C15.5 11.4772 19.9772 7 25.5 7L60.5 7C63.2614 7 65.5 9.23858 65.5 12L65.5 38Z" fill="#E8EEF5"/>
<path d="M9.47853 22.5387L25 13.5774L40.5215 22.5387V40.4613L25 49.4226L9.47853 40.4613V22.5387Z" stroke="#005FFF"/>
<path d="M14.6747 25.5387L25 19.5774L35.3253 25.5387V37.4613L25 43.4227L14.6747 37.4613V25.5387Z" stroke="#005FFF"/>
</svg>
