<svg width="253" height="51" viewBox="0 0 253 51" fill="none" xmlns="http://www.w3.org/2000/svg">
<path d="M22.6468 8.78115C23.5449 6.01722 27.4551 6.01722 28.3532 8.78115L30.5516 15.5471C30.9532 16.7832 32.1051 17.6201 33.4047 17.6201L40.5189 17.6201C43.4251 17.6201 44.6334 21.3389 42.2822 23.0471L36.5268 27.2287C35.4753 27.9926 35.0353 29.3467 35.437 30.5828L37.6354 37.3488C38.5334 40.1127 35.37 42.4111 33.0188 40.7029L27.2634 36.5213C26.2119 35.7574 24.7881 35.7574 23.7366 36.5213L17.9812 40.7029C15.63 42.4111 12.4666 40.1127 13.3646 37.3488L15.563 30.5828C15.9647 29.3467 15.5247 27.9926 14.4732 27.2287L8.71775 23.0471C6.36661 21.3389 7.57494 17.6201 10.4811 17.6201L17.5953 17.6201C18.8949 17.6201 20.0468 16.7832 20.4484 15.5471L22.6468 8.78115Z" fill="#FFF38B"/>
<path d="M123.647 8.78115C124.545 6.01722 128.455 6.01722 129.353 8.78115L131.552 15.5471C131.953 16.7832 133.105 17.6201 134.405 17.6201L141.519 17.6201C144.425 17.6201 145.633 21.3389 143.282 23.0471L137.527 27.2287C136.475 27.9926 136.035 29.3467 136.437 30.5828L138.635 37.3488C139.533 40.1127 136.37 42.4111 134.019 40.7029L128.263 36.5213C127.212 35.7574 125.788 35.7574 124.737 36.5213L118.981 40.7029C116.63 42.4111 113.467 40.1127 114.365 37.3488L116.563 30.5828C116.965 29.3467 116.525 27.9926 115.473 27.2287L109.718 23.0471C107.367 21.3389 108.575 17.6201 111.481 17.6201L118.595 17.6201C119.895 17.6201 121.047 16.7832 121.448 15.5471L123.647 8.78115Z" fill="#FFF38B"/>
<path d="M225.122 8.93566C225.871 6.63238 229.129 6.63238 229.878 8.93566L232.076 15.7016C232.545 17.1437 233.888 18.1201 235.405 18.1201L242.519 18.1201C244.941 18.1201 245.948 21.2191 243.988 22.6426L238.233 26.8242C237.006 27.7155 236.493 29.2952 236.961 30.7373L239.16 37.5033C239.908 39.8066 237.272 41.7219 235.313 40.2984L229.557 36.1168C228.331 35.2255 226.669 35.2255 225.443 36.1168L219.687 40.2984C217.728 41.7219 215.092 39.8066 215.84 37.5033L218.039 30.7373C218.507 29.2952 217.994 27.7155 216.767 26.8242L211.012 22.6426C209.052 21.2191 210.059 18.1201 212.481 18.1201L219.595 18.1201C221.112 18.1201 222.455 17.1437 222.924 15.7016L225.122 8.93566Z" stroke="#FFF38B"/>
<path d="M73.1415 8.97343C74.029 6.18751 77.971 6.18751 78.8585 8.97343L80.9473 15.5306C81.3437 16.7751 82.4997 17.6201 83.8057 17.6201H90.6896C93.5814 17.6201 94.7991 21.3086 92.4758 23.0304L86.8051 27.2328C85.7744 27.9966 85.3434 29.3313 85.7328 30.5536L87.8746 37.2772C88.7584 40.0516 85.5693 42.3317 83.2299 40.598L77.7862 36.5638C76.7252 35.7776 75.2748 35.7776 74.2138 36.5638L68.7701 40.598C66.4307 42.3317 63.2416 40.0516 64.1254 37.2772L66.2672 30.5536C66.6566 29.3313 66.2256 27.9966 65.1949 27.2328L59.5242 23.0304C57.2009 21.3086 58.4186 17.6201 61.3104 17.6201H68.1943C69.5003 17.6201 70.6563 16.7751 71.0527 15.5306L73.1415 8.97343Z" fill="#FFF38B"/>
<path d="M174.142 8.97343C175.029 6.18751 178.971 6.18751 179.858 8.97343L181.947 15.5306C182.344 16.7751 183.5 17.6201 184.806 17.6201H191.69C194.581 17.6201 195.799 21.3086 193.476 23.0304L187.805 27.2328C186.774 27.9966 186.343 29.3313 186.733 30.5536L188.875 37.2772C189.758 40.0516 186.569 42.3317 184.23 40.598L178.786 36.5638C177.725 35.7776 176.275 35.7776 175.214 36.5638L169.77 40.598C167.431 42.3317 164.242 40.0516 165.125 37.2772L167.267 30.5536C167.657 29.3313 167.226 27.9966 166.195 27.2328L160.524 23.0304C158.201 21.3086 159.419 17.6201 162.31 17.6201H169.194C170.5 17.6201 171.656 16.7751 172.053 15.5306L174.142 8.97343Z" fill="#FFF38B"/>
<mask id="mask0_3_5127" style="mask-type:alpha" maskUnits="userSpaceOnUse" x="209" y="6" width="37" height="36">
<path d="M224.647 8.78115C225.545 6.01722 229.455 6.01722 230.353 8.78115L232.552 15.5471C232.953 16.7832 234.105 17.6201 235.405 17.6201L242.519 17.6201C245.425 17.6201 246.633 21.3389 244.282 23.0471L238.527 27.2287C237.475 27.9926 237.035 29.3467 237.437 30.5828L239.635 37.3488C240.533 40.1127 237.37 42.4111 235.019 40.7029L229.263 36.5213C228.212 35.7574 226.788 35.7574 225.737 36.5213L219.981 40.7029C217.63 42.4111 214.467 40.1127 215.365 37.3488L217.563 30.5828C217.965 29.3467 217.525 27.9926 216.473 27.2287L210.718 23.0471C208.367 21.3389 209.575 17.6201 212.481 17.6201L219.595 17.6201C220.895 17.6201 222.047 16.7832 222.448 15.5471L224.647 8.78115Z" fill="#00B3FF"/>
</mask>
<g mask="url(#mask0_3_5127)">
<rect x="207" y="1" width="20" height="46" fill="#FFF38B"/>
</g>
</svg>
