<svg width="24" height="7" viewBox="0 0 24 7" fill="none" xmlns="http://www.w3.org/2000/svg">
<path d="M12 1.66732C13.0125 1.66732 13.8333 2.48813 13.8333 3.50065C13.8333 4.51317 13.0125 5.33398 12 5.33398C10.9874 5.33398 10.1666 4.51317 10.1666 3.50065C10.1666 2.48813 10.9874 1.66732 12 1.66732Z" stroke="#00B3FF" stroke-width="1.5"/>
<path d="M21.1667 1.66732C22.1792 1.66732 23 2.48813 23 3.50065C23 4.51317 22.1792 5.33398 21.1667 5.33398C20.1542 5.33398 19.3334 4.51317 19.3334 3.50065C19.3334 2.48813 20.1542 1.66732 21.1667 1.66732Z" stroke="#00B3FF" stroke-width="1.5"/>
<path d="M2.83333 1.66732C3.84586 1.66732 4.66667 2.48813 4.66667 3.50065C4.66667 4.51317 3.84586 5.33398 2.83333 5.33398C1.82081 5.33398 1 4.51317 1 3.50065C1 2.48813 1.82081 1.66732 2.83333 1.66732Z" stroke="#00B3FF" stroke-width="1.5"/>
</svg>
